@startuml eg

class Matriz {
  - elementos: List[List[int]]
  + __init__(elementos: List[List[int]])
}

class Transpuesta {
  - matriz: Matriz
  + __init__(matriz: Matriz)
  + calcular_transpuesta(): Matriz
}

class Imprimir {
  - matriz: Matriz
  + __init__(matriz: Matriz)
  + imprimir()
}

class Lanzador {
  - elementos: List[List[int]]
  - cantidad_filas: int
  - cantidad_columnas: int
  - matriz: Matriz
  - transpuesta: Transpuesta
  - imprimir: Imprimir
  + __init__()
  + crear_matriz()
  + lanzar()
}

Matriz -- Transpuesta : <<uses>>
Matriz -- Imprimir : <<uses>>
Lanzador -- Matriz : <<uses>>
Lanzador -- Transpuesta : <<uses>>
Lanzador -- Imprimir : <<uses>>

@enduml
